<svg xmlns="http://www.w3.org/2000/svg" viewBox="0 0 64 64">
  <defs>
    <linearGradient id="g" x1="0" y1="0" x2="1" y2="1">
      <stop offset="0" stop-color="#FF7E5F"/>
      <stop offset="1" stop-color="#FEB47B"/>
    </linearGradient>
  </defs>
  <rect width="64" height="64" rx="14" fill="url(#g)"/>
  <path d="M44 22c-2-3-6-5-11-5-7 0-12 4-12 10 0 5 4 7 11 9 6 2 8 3 8 6 0 3-3 5-8 5-4 0-7-1-10-4l-3 5c4 4 8 5 13 5 8 0 13-4 13-11 0-6-4-8-12-10-5-1-7-3-7-5 0-3 3-5 7-5 3 0 6 1 8 4z" fill="#fff"/>
</svg>
